<svg xmlns="http://www.w3.org/2000/svg" width="45.981" height="45.981" viewBox="0 0 45.981 45.981">
    <path id="Path_87" data-name="Path 87"
        d="M1.016,23.941l5.877,2.247a1.583,1.583,0,0,0,2.041-.912L9.041,25l.163.09a10.1,10.1,0,0,0,1.135,1.73,2.192,2.192,0,0,0,1.883,3.314h.038a2.189,2.189,0,0,0,2.178,1.949h.039a2.187,2.187,0,0,0,2.174,1.949h.041a2.193,2.193,0,0,0,3.826,1.206l.392-.445,2.133,1.81a2.175,2.175,0,0,0,1.414.519q.092,0,.184-.008a2.186,2.186,0,0,0,2.01-2.074,2.187,2.187,0,0,0,2.09-1.879c.06,0,.12.008.18.008a2.189,2.189,0,0,0,2.161-1.814,2.212,2.212,0,0,0,.281.02q.092,0,.184-.008a2.17,2.17,0,0,0,1.8-3.092,11.574,11.574,0,0,0,2.438-2.441l.013-.018a2.818,2.818,0,0,1,1.114-.895l.138.361a1.581,1.581,0,0,0,2.041.912l5.877-2.247a1.583,1.583,0,0,0,.912-2.041l-4.6-12.018A1.583,1.583,0,0,0,39.24,8.97l-5.877,2.247a1.583,1.583,0,0,0-.912,2.041l.073.19c-.41.142-.882.308-1.412.494a35.2,35.2,0,0,0-7.5-1.256,2.879,2.879,0,0,0-2.043.637l-1.764,1.4-3.715-.117L13.484,13.38l.046-.121a1.583,1.583,0,0,0-.912-2.041L6.741,8.97A1.583,1.583,0,0,0,4.7,9.882L.1,21.9a1.583,1.583,0,0,0,.912,2.041Zm10.708,4.566a.757.757,0,0,1-.069-1.068l1.194-1.358a.757.757,0,1,1,1.137,1l-1.194,1.358a.761.761,0,0,1-1.068.068Zm2.215,1.948a.757.757,0,0,1-.069-1.067l1.847-2.1a.757.757,0,1,1,1.136,1l-.508.577h0l-1.339,1.523a.757.757,0,0,1-1.068.068ZM16.155,32.4a.758.758,0,0,1-.069-1.068l1.339-1.523a.757.757,0,1,1,1.136,1l-.7.8-.638.725A.758.758,0,0,1,16.155,32.4Zm3.283,1.879a.757.757,0,1,1-1.136-1l.638-.725a.757.757,0,1,1,1.136,1ZM33.8,12.636a.141.141,0,0,1,.079-.076l5.877-2.247a.141.141,0,0,1,.05-.009.146.146,0,0,1,.136.092l4.6,12.017a.146.146,0,0,1-.083.186l-5.877,2.247a.146.146,0,0,1-.186-.083l-4.6-12.018a.142.142,0,0,1,0-.11ZM22.464,14.45a1.446,1.446,0,0,1,1.053-.328,33.735,33.735,0,0,1,7.417,1.266.718.718,0,0,0,.439-.012c.636-.225,1.193-.419,1.664-.583l3.357,8.779a4.3,4.3,0,0,0-1.755,1.385,9.994,9.994,0,0,1-2.218,2.2l-8.309-7.83a2.066,2.066,0,0,0-3.065.258,3.134,3.134,0,0,0-.491.974.717.717,0,0,0-.021.085c-.294,1.661-1.013,2.666-2.023,2.829a.718.718,0,0,0-.2.062.574.574,0,0,1-.819-.45l.063-4.443a.588.588,0,0,1,.237-.483Zm-6.851,1.523a.717.717,0,0,0,.284.068l2.169.068-1.166.926a2.031,2.031,0,0,0-.78,1.588l-.063,4.48q0,.031,0,.062a2.01,2.01,0,0,0,2.781,1.71c.82-.162,2.544-.869,3.1-3.932a1.684,1.684,0,0,1,.252-.492.629.629,0,0,1,.933-.079l8.7,8.2a.79.79,0,0,1,.116,1.091.761.761,0,0,1-1.066.087l-.468-.4v0l-.068-.061-3.609-3.061a.718.718,0,1,0-.93,1.1l3.609,3.061a.757.757,0,1,1-.979,1.154l-.438-.372h0l0,0L24.51,28.219a.718.718,0,1,0-.93,1.1l3.479,2.951a.757.757,0,1,1-.979,1.154l-.2-.169h0l-3.2-2.715a.718.718,0,1,0-.93,1.1l3.067,2.6.134.114a.757.757,0,1,1-.979,1.154l-2.323-1.971a2.212,2.212,0,0,0,.046-.612,2.189,2.189,0,0,0-1.6-1.973,2.19,2.19,0,0,0-1.647-2.778,2.194,2.194,0,0,0-.711-2.028l-.475.539.474-.54a2.2,2.2,0,0,0-2.285-.38,2.192,2.192,0,0,0-3.68-.626l-.491.558a9.342,9.342,0,0,1-.9-1.454.718.718,0,0,0-.3-.308q-.261-.141-.523-.286l3.41-8.917ZM1.446,22.413,6.042,10.4a.146.146,0,0,1,.136-.092.14.14,0,0,1,.05.009L12.1,12.56a.146.146,0,0,1,.083.186l-4.6,12.018a.146.146,0,0,1-.186.083L1.529,22.6a.146.146,0,0,1-.084-.186ZM22.99,0a.718.718,0,0,1,.718.718V7.849a.718.718,0,1,1-1.437,0V.718A.718.718,0,0,1,22.99,0Zm11.5,3.077a.718.718,0,0,1,.263.981l-3.566,6.177a.718.718,0,1,1-1.244-.718L33.506,3.34A.718.718,0,0,1,34.488,3.077Zm2.554,28.856a.718.718,0,1,1,.718-1.244l4.881,2.818a.718.718,0,0,1-.718,1.244Zm-2.291,9.99a.718.718,0,1,1-1.244.718L30.688,37.76a.718.718,0,1,1,1.244-.718Zm-12.479,3.34V39.628a.718.718,0,1,1,1.437,0v5.635a.718.718,0,1,1-1.437,0ZM11.852,43a.718.718,0,0,1-.622-1.078l2.818-4.881a.718.718,0,1,1,1.244.718l-2.818,4.881A.718.718,0,0,1,11.852,43ZM8.939,31.933,4.058,34.751a.718.718,0,1,1-.718-1.244L8.22,30.688a.718.718,0,1,1,.718,1.244ZM12.475,3.34l3.566,6.177a.718.718,0,0,1-1.244.718L11.23,4.058a.718.718,0,1,1,1.244-.718Z"
        transform="translate(0)" fill="#d09984" />
</svg>
