<svg id="Group_547" data-name="Group 547" xmlns="http://www.w3.org/2000/svg" width="36.413" height="36.413"
    viewBox="0 0 36.413 36.413">
    <path id="Path_82" data-name="Path 82"
        d="M40.814,54.393H5.6a.6.6,0,0,1-.6-.6V27.4a.6.6,0,0,1,.6-.6H40.813a.6.6,0,0,1,.6.6V53.792A.6.6,0,0,1,40.814,54.393ZM6.2,53.192H40.213V28H6.2Z"
        transform="translate(-5 -17.979)" fill="#d09984" />
    <path id="Path_83" data-name="Path 83"
        d="M44.97,15.02h-3.5a.6.6,0,0,1-.6-.6,5.01,5.01,0,0,0-4.692-5.051,5.01,5.01,0,0,0-4.692,5.051.6.6,0,0,1-.6.6h-3.5a.6.6,0,0,1-.6-.6,9.393,9.393,0,1,1,18.787,0,.6.6,0,0,1-.6.6Zm-2.929-1.2h2.307a8.191,8.191,0,0,0-16.342,0h2.308a6.219,6.219,0,0,1,5.863-5.651A6.129,6.129,0,0,1,42.04,13.82Z"
        transform="translate(-17.97 -5)" fill="#d09984" />
    <path id="Path_84" data-name="Path 84"
        d="M48.052,61.894H43.539a.6.6,0,0,1-.6-.6v-7.22a.6.6,0,0,1,.6-.6h4.513a.6.6,0,0,1,.6.6v7.22A.6.6,0,0,1,48.052,61.894Zm-3.914-1.2h3.313v-6.02H44.139Z"
        transform="translate(-27.589 -33.861)" fill="#d09984" />
    <path id="Path_85" data-name="Path 85"
        d="M48.052,61.894H43.539a.6.6,0,0,1-.6-.6v-7.22a.6.6,0,0,1,.6-.6h4.513a.6.6,0,0,1,.6.6v7.22A.6.6,0,0,1,48.052,61.894Zm-3.914-1.2h3.313v-6.02H44.139Z"
        transform="translate(-27.589 -33.861)" fill="#d09984" />
    <path id="Path_86" data-name="Path 86"
        d="M25.463,43.478a.6.6,0,0,1-.6-.6V38.792H21.55v4.086a.6.6,0,0,1-.187.435.6.6,0,0,1-.446.163C9.5,42.848,5.3,37.687,5.129,37.468A.6.6,0,0,1,5,37.1V27.4a.6.6,0,0,1,.6-.6H40.813a.6.6,0,0,1,.6.6v9.7a.6.6,0,0,1-.129.373c-.175.22-4.392,5.382-15.788,6.009h-.033ZM20.95,37.591h4.513a.6.6,0,0,1,.6.6v4.047c9.36-.675,13.4-4.56,14.15-5.368V28H6.2v8.87c.749.8,4.829,4.7,14.149,5.369V38.192A.6.6,0,0,1,20.95,37.591Z"
        transform="translate(-5 -17.979)" fill="#d09984" />
    <ellipse id="Ellipse_2" data-name="Ellipse 2" cx="0.967" cy="0.967" rx="0.967" ry="0.967"
        transform="translate(17.239 24.194)" fill="#d09984" />
</svg>
