<svg xmlns="http://www.w3.org/2000/svg" width="38.301" height="38.297" viewBox="0 0 38.301 38.297">
    <g id="Group_550" data-name="Group 550" transform="translate(-0.001 -0.033)">
        <path id="Path_100" data-name="Path 100"
            d="M265,208.055h-8.936v8.936H265Zm-1.277,3.83h-2.553v-2.553h2.553Zm-3.83-2.553v2.553h-2.553v-2.553Zm-2.553,3.83h2.553v2.553h-2.553Zm3.83,2.553v-2.553h2.553v2.553Zm0,0"
            transform="translate(-235.632 -191.425)" fill="#d09984" />
        <path id="Path_101" data-name="Path 101" d="M192.063,288.055h1.277v3.83h-1.277Zm0,0"
            transform="translate(-176.738 -265.042)" fill="#d09984" />
        <path id="Path_102" data-name="Path 102"
            d="M38.3,26.842c0-2.537-.877-5.106-2.553-5.106S33.2,24.3,33.2,26.842c0,2.192.656,4.4,1.915,4.966v1.416H31.919V15.353h5.744a.638.638,0,0,0,.383-1.149L19.537.163a.639.639,0,0,0-.771,0L.256,14.2a.638.638,0,0,0,.388,1.149H6.388V33.225H3.2V31.808c1.259-.562,1.915-2.774,1.915-4.966,0-2.537-.877-5.106-2.553-5.106S.006,24.3.006,26.842c0,2.192.656,4.4,1.915,4.966v1.416H.006v5.106H38.3V33.225H36.387V31.808C37.645,31.246,38.3,29.034,38.3,26.842Zm-37.019,0c0-2.375.83-3.83,1.277-3.83s1.277,1.454,1.277,3.83-.827,3.83-1.277,3.83S1.282,29.218,1.282,26.842ZM2.542,14.077l16.612-12.6,16.612,12.6Zm5.123,1.277H30.642V33.225H19.154V21.736a5.106,5.106,0,0,0-10.212,0V33.225H7.665ZM17.877,33.225H10.218V21.736a3.83,3.83,0,0,1,7.659,0Zm19.148,3.83H1.282V34.5H37.025ZM34.472,26.842c0-2.375.83-3.83,1.277-3.83s1.277,1.454,1.277,3.83-.83,3.83-1.277,3.83S34.472,29.218,34.472,26.842Zm0,0"
            transform="translate(0)" fill="#d09984" />
    </g>
</svg>
