<svg xmlns="http://www.w3.org/2000/svg" width="242.352" height="42.939" viewBox="0 0 242.352 42.939">
    <g id="Group_541" data-name="Group 541" transform="translate(0 0.001)">
        <path id="Path_80" data-name="Path 80" d="M158.465,0,143,42.938h34.932L162.841,21.313,185.937,0Z"
            transform="translate(-116.982 0)" fill="#fff" />
        <path id="Path_81" data-name="Path 81" d="M0,0,24.924,42.938,36.388,0Z" transform="translate(0 0)"
            fill="#fff" />
    </g>
    <path id="Path_103" data-name="Path 103"
        d="M7.616,0H9.3L5.81-9.744H3.962L.476,0H2.142l.7-1.988H6.916ZM6.468-3.29H3.29l1.6-4.522Zm3.808-.6A3.733,3.733,0,0,0,13.916.126,3.2,3.2,0,0,0,16.59-1.162V0H18.2V-10.36H16.59v3.724a3.553,3.553,0,0,0-2.66-1.2A3.674,3.674,0,0,0,10.276-3.892Zm6.314.028a2.4,2.4,0,0,1-2.338,2.6,2.43,2.43,0,0,1-2.338-2.632,2.367,2.367,0,0,1,2.338-2.562A2.392,2.392,0,0,1,16.59-3.864Zm2.8-3.85L22.316,0h1.9l2.94-7.714H25.466L23.282-1.428,21.1-7.714Zm16.324,3.85A3.8,3.8,0,0,0,31.78-7.84a3.8,3.8,0,0,0-3.934,3.976A3.761,3.761,0,0,0,31.71.126,3.864,3.864,0,0,0,35.714-3.864Zm-6.244,0a2.3,2.3,0,0,1,2.282-2.59,2.334,2.334,0,0,1,2.324,2.59,2.376,2.376,0,0,1-2.366,2.6C30.506-1.26,29.47-2.114,29.47-3.864ZM37.3,0h1.6V-3.318L41.748,0H43.9L40.348-3.85,43.9-7.714H41.692l-2.8,3.374v-6.02H37.3ZM44.52-3.892A3.729,3.729,0,0,0,48.132.126a3.32,3.32,0,0,0,2.7-1.274V0h1.61V-7.714h-1.61v1.12A3.283,3.283,0,0,0,48.16-7.84,3.672,3.672,0,0,0,44.52-3.892Zm6.314.028A2.4,2.4,0,0,1,48.5-1.26a2.43,2.43,0,0,1-2.338-2.632A2.367,2.367,0,0,1,48.5-6.454,2.392,2.392,0,0,1,50.834-3.864ZM47.1-9.436V-8.26L50.19-9.786v-1.358Zm7.7,7.294C54.8-.574,55.65,0,57.022,0h1.26V-1.33H57.3c-.672,0-.9-.238-.9-.812v-4.27h1.876v-1.3H56.406V-9.632H54.8v1.918h-.91v1.3h.91ZM65.226,0h1.582V-4.55a3,3,0,0,0-3.164-3.29,2.968,2.968,0,0,0-2.3,1.008v-.882h-1.6V0h1.6V-4.312a1.87,1.87,0,0,1,1.946-2.142c1.162,0,1.932.728,1.932,2.142Zm3.612,0h1.6V-7.714h-1.6Zm-.854-9.436V-8.26l3.094-1.526v-1.358ZM76.174,0h1.6V-3.318L80.626,0h2.156L79.226-3.85l3.556-3.864H80.57L77.77-4.34v-6.02h-1.6ZM83.4-3.892A3.729,3.729,0,0,0,87.01.126a3.32,3.32,0,0,0,2.7-1.274V0h1.61V-7.714h-1.61v1.12A3.283,3.283,0,0,0,87.038-7.84,3.672,3.672,0,0,0,83.4-3.892Zm6.314.028a2.4,2.4,0,0,1-2.338,2.6,2.43,2.43,0,0,1-2.338-2.632,2.367,2.367,0,0,1,2.338-2.562A2.392,2.392,0,0,1,89.712-3.864ZM98.9,0h1.582V-4.55a3,3,0,0,0-3.164-3.29,2.968,2.968,0,0,0-2.3,1.008v-.882h-1.6V0h1.6V-4.312a1.87,1.87,0,0,1,1.946-2.142c1.162,0,1.932.728,1.932,2.142Zm3.08-3.864a3.689,3.689,0,0,0,3.78,3.99,3.465,3.465,0,0,0,3.556-2.562H107.59a1.762,1.762,0,0,1-1.834,1.218c-1.288,0-2.142-.952-2.142-2.646s.854-2.632,2.142-2.632a1.8,1.8,0,0,1,1.834,1.218h1.722a3.355,3.355,0,0,0-3.556-2.562A3.685,3.685,0,0,0,101.976-3.864ZM114.156-6.5a2,2,0,0,1,2.156,1.946h-4.27A2.1,2.1,0,0,1,114.156-6.5Zm3.612,4.2h-1.722a1.868,1.868,0,0,1-1.82,1.078,2.122,2.122,0,0,1-2.2-2.044h5.894a4.923,4.923,0,0,0,.056-.784,3.6,3.6,0,0,0-3.752-3.794,3.694,3.694,0,0,0-3.85,3.976,3.743,3.743,0,0,0,3.85,3.99A3.525,3.525,0,0,0,117.768-2.3ZM119.546,0h1.6V-10.36h-1.6Zm3.164-3.892A3.729,3.729,0,0,0,126.322.126a3.32,3.32,0,0,0,2.7-1.274V0h1.61V-7.714h-1.61v1.12A3.283,3.283,0,0,0,126.35-7.84,3.672,3.672,0,0,0,122.71-3.892Zm6.314.028a2.4,2.4,0,0,1-2.338,2.6,2.43,2.43,0,0,1-2.338-2.632,2.367,2.367,0,0,1,2.338-2.562A2.392,2.392,0,0,1,129.024-3.864Zm-3.738-5.572V-8.26l3.094-1.526v-1.358ZM134.33-4.06c0-1.638.728-2.128,1.9-2.128h.406V-7.84a2.513,2.513,0,0,0-2.31,1.246v-1.12h-1.6V0h1.6Zm.728-5.4-2-1.2v1.246l2,1.162,2-1.162v-1.246ZM1.05,20h1.6V13.336L5.628,20H6.734L9.7,13.336V20h1.6V10.27H9.59l-3.4,7.63L2.772,10.27H1.05Zm11.816-3.892a3.733,3.733,0,0,0,3.64,4.018,3.311,3.311,0,0,0,2.674-1.288v1.288a2.055,2.055,0,0,1-2.156,2.3,2.15,2.15,0,0,1-2.2-1.344H13.244c.2,1.708,1.722,2.73,3.78,2.73a3.5,3.5,0,0,0,3.766-3.682v-7.84H19.18v1.12a3.268,3.268,0,0,0-2.674-1.246A3.672,3.672,0,0,0,12.866,16.108Zm6.314.028a2.4,2.4,0,0,1-2.338,2.6A2.43,2.43,0,0,1,14.5,16.108a2.367,2.367,0,0,1,2.338-2.562A2.392,2.392,0,0,1,19.18,16.136Zm5.306-.2c0-1.638.728-2.128,1.9-2.128H26.8V12.16a2.513,2.513,0,0,0-2.31,1.246v-1.12h-1.6V20h1.6Zm5.432,3.136A1.015,1.015,0,1,0,28.91,20.1,1.007,1.007,0,0,0,29.918,19.076Zm9.17-.714L36.2,10.27H34.5L38.164,20h1.848l3.654-9.73h-1.68ZM45,20h1.6V9.64H45Zm3.164-3.892a3.729,3.729,0,0,0,3.612,4.018,3.32,3.32,0,0,0,2.7-1.274V20h1.61V12.286h-1.61v1.12A3.283,3.283,0,0,0,51.8,12.16,3.672,3.672,0,0,0,48.16,16.108Zm6.314.028a2.4,2.4,0,0,1-2.338,2.6A2.43,2.43,0,0,1,49.8,16.108a2.367,2.367,0,0,1,2.338-2.562A2.392,2.392,0,0,1,54.474,16.136Zm3.178-.028a3.733,3.733,0,0,0,3.64,4.018,3.2,3.2,0,0,0,2.674-1.288V20h1.61V9.64h-1.61v3.724a3.553,3.553,0,0,0-2.66-1.2A3.674,3.674,0,0,0,57.652,16.108Zm6.314.028a2.4,2.4,0,0,1-2.338,2.6,2.43,2.43,0,0,1-2.338-2.632,2.367,2.367,0,0,1,2.338-2.562A2.392,2.392,0,0,1,63.966,16.136ZM67.676,20h1.6V12.286h-1.6Zm.812-8.736a1.022,1.022,0,1,0-1.022-1.022A1.007,1.007,0,0,0,68.488,11.264ZM82.306,20h1.582V15.45a3.162,3.162,0,0,0-5.866-1.764A2.975,2.975,0,0,0,75.25,12.16a2.938,2.938,0,0,0-2.282,1.008v-.882h-1.6V20h1.6V15.688a1.87,1.87,0,0,1,1.946-2.142c1.162,0,1.932.728,1.932,2.142V20h1.582V15.688a1.87,1.87,0,0,1,1.946-2.142c1.162,0,1.932.728,1.932,2.142Zm3.612,0h1.6V12.286h-1.6Zm-.854-9.436V11.74l3.094-1.526V8.856ZM91.21,15.94c0-1.638.728-2.128,1.9-2.128h.406V12.16a2.513,2.513,0,0,0-2.31,1.246v-1.12h-1.6V20h1.6Zm3.248.168a3.729,3.729,0,0,0,3.612,4.018,3.32,3.32,0,0,0,2.7-1.274V20h1.61V12.286h-1.61v1.12A3.283,3.283,0,0,0,98.1,12.16,3.672,3.672,0,0,0,94.458,16.108Zm6.314.028a2.4,2.4,0,0,1-2.338,2.6A2.43,2.43,0,0,1,96.1,16.108a2.367,2.367,0,0,1,2.338-2.562A2.392,2.392,0,0,1,100.772,16.136ZM113.484,20h2.086l-4.3-4.858L115.5,10.27h-2l-3.78,4.438V10.27h-1.6V20h1.6V15.646Zm6.538-1.834-2.17-5.88h-1.778l3.038,7.588-1.568,3.752H119.2l4.732-11.34h-1.652Zm10.024-5.88H124.7v1.3h3.514L124.7,18.7V20h5.348V18.7h-3.5l3.5-5.11ZM131.726,20h1.6V9.64h-1.6Zm3.7,0h1.6V12.286h-1.6Zm.812-8.736a1.022,1.022,0,1,0-1.022-1.022A1.007,1.007,0,0,0,136.234,11.264ZM144.592,20h1.582V15.45a3,3,0,0,0-3.164-3.29,2.968,2.968,0,0,0-2.3,1.008v-.882h-1.6V20h1.6V15.688a1.87,1.87,0,0,1,1.946-2.142c1.162,0,1.932.728,1.932,2.142Zm3.612,0h1.6V16.682L152.656,20h2.156l-3.556-3.85,3.556-3.864H152.6l-2.8,3.374V9.64h-1.6Zm7.224-3.892a3.729,3.729,0,0,0,3.612,4.018,3.32,3.32,0,0,0,2.7-1.274V20h1.61V12.286h-1.61v1.12a3.283,3.283,0,0,0-2.674-1.246A3.672,3.672,0,0,0,155.428,16.108Zm6.314.028a2.4,2.4,0,0,1-2.338,2.6,2.43,2.43,0,0,1-2.338-2.632,2.367,2.367,0,0,1,2.338-2.562A2.392,2.392,0,0,1,161.742,16.136Z"
        transform="translate(79 17.009)" fill="#f3fbff" />
</svg>
