<svg xmlns="http://www.w3.org/2000/svg" width="25.97" height="16.281" viewBox="0 0 25.97 16.281">
    <path id="Path_79" data-name="Path 79"
        d="M28.661,24H10.771a2.42,2.42,0,0,0-2.308,2.5v.939a.579.579,0,1,0,1.154,0V26.5a1.694,1.694,0,0,1,.058-.376l6.464,6.012L9.675,38.152a1.694,1.694,0,0,1-.058-.376v-.939a.579.579,0,1,0-1.154,0v.939a2.42,2.42,0,0,0,2.308,2.5h17.89a2.42,2.42,0,0,0,2.308-2.5V26.5A2.42,2.42,0,0,0,28.661,24ZM10.54,25.284a.522.522,0,0,1,.231-.031h17.89a.522.522,0,0,1,.231.031l-8.8,8.172a.57.57,0,0,1-.75,0ZM28.661,39.029H10.771A.522.522,0,0,1,10.54,39l6.492-6.043,1.558,1.472a1.583,1.583,0,0,0,2.251,0L22.4,32.955,28.892,39A.522.522,0,0,1,28.661,39.029Zm1.154-1.252a1.694,1.694,0,0,1-.058.376l-6.464-6.012,6.464-6.012a1.694,1.694,0,0,1,.058.376Zm-23.084-7.2a.6.6,0,0,1,.577-.626h3.463a.628.628,0,0,1,0,1.252H7.308A.6.6,0,0,1,6.731,30.575Zm4.04,3.757H5.577a.628.628,0,0,1,0-1.252h5.194a.628.628,0,0,1,0,1.252Z"
        transform="translate(-5 -24)" fill="#d09984" />
</svg>
