<svg xmlns="http://www.w3.org/2000/svg" width="20.969" height="21" viewBox="0 0 20.969 21">
    <g id="Group_76" data-name="Group 76" transform="translate(-0.344 0)">
        <g id="Group_64" data-name="Group 64" transform="translate(0.344 0)">
            <path id="Path_55" data-name="Path 55"
                d="M16.926,39.2a2.065,2.065,0,0,0-1.5-.687,2.136,2.136,0,0,0-1.516.683l-1.4,1.4c-.115-.062-.23-.12-.341-.177-.16-.08-.31-.155-.439-.235a15.222,15.222,0,0,1-3.648-3.324,8.98,8.98,0,0,1-1.2-1.888c.363-.332.7-.678,1.028-1.011.124-.124.248-.253.372-.377a2.033,2.033,0,0,0,0-3.067L7.077,29.3c-.137-.137-.279-.279-.412-.421-.266-.275-.545-.558-.833-.824a2.1,2.1,0,0,0-1.485-.652,2.171,2.171,0,0,0-1.507.652l-.009.009-1.507,1.52a3.243,3.243,0,0,0-.962,2.061A7.77,7.77,0,0,0,.93,34.936a19.083,19.083,0,0,0,3.391,5.655,20.857,20.857,0,0,0,6.945,5.438,10.821,10.821,0,0,0,3.9,1.152c.093,0,.191.009.279.009A3.34,3.34,0,0,0,18,46.092c0-.009.013-.013.018-.022a10.077,10.077,0,0,1,.776-.8c.191-.182.386-.372.576-.572a2.211,2.211,0,0,0,.669-1.534,2.13,2.13,0,0,0-.683-1.52Zm1.587,4.667s0,0,0,0c-.173.186-.35.355-.541.541a11.654,11.654,0,0,0-.855.886,2.137,2.137,0,0,1-1.666.7c-.066,0-.137,0-.2,0a9.613,9.613,0,0,1-3.457-1.037,19.688,19.688,0,0,1-6.542-5.124A17.994,17.994,0,0,1,2.056,34.52a6.328,6.328,0,0,1-.5-2.775,2.035,2.035,0,0,1,.612-1.316l1.511-1.511a1.007,1.007,0,0,1,.674-.315.948.948,0,0,1,.647.31l.013.013c.27.253.527.514.8.793.137.142.279.284.421.43l1.21,1.21a.846.846,0,0,1,0,1.374c-.129.129-.253.257-.381.381-.372.381-.727.736-1.112,1.081-.009.009-.018.013-.022.022a.9.9,0,0,0-.23,1.006l.013.04A9.714,9.714,0,0,0,7.144,37.6l0,0a16.268,16.268,0,0,0,3.936,3.581,6.051,6.051,0,0,0,.545.3c.16.08.31.155.439.235.018.009.035.022.053.031a.961.961,0,0,0,.439.111.948.948,0,0,0,.674-.306l1.516-1.516a1,1,0,0,1,.669-.332.9.9,0,0,1,.638.324l.009.009,2.442,2.442A.876.876,0,0,1,18.512,43.867Z"
                transform="translate(-0.344 -26.191)" fill="#d09984" />
            <path id="Path_56" data-name="Path 56"
                d="M245.436,87.112a5.7,5.7,0,0,1,4.645,4.645.6.6,0,0,0,.589.5.793.793,0,0,0,.1-.009.6.6,0,0,0,.492-.691,6.9,6.9,0,0,0-5.62-5.62.6.6,0,0,0-.691.488A.592.592,0,0,0,245.436,87.112Z"
                transform="translate(-234.103 -82.117)" fill="#d09984" />
            <path id="Path_57" data-name="Path 57"
                d="M258.725,9.264A11.357,11.357,0,0,0,249.47.009a.6.6,0,1,0-.2,1.179,10.144,10.144,0,0,1,8.27,8.27.6.6,0,0,0,.59.5.792.792,0,0,0,.1-.009A.587.587,0,0,0,258.725,9.264Z"
                transform="translate(-237.764 0)" fill="#d09984" />
        </g>
    </g>
</svg>
