<svg id="Group_549" data-name="Group 549" xmlns="http://www.w3.org/2000/svg" viewBox="0 0 39.337 37.698">
    <path id="Path_89" data-name="Path 89"
        d="M21.834,32.947a.822.822,0,0,1-.318-.064C21.126,32.717,12,28.774,12,20.713v-6.85a.82.82,0,0,1,.557-.777l9.015-3.044a.821.821,0,0,1,.524,0l9.015,3.044a.819.819,0,0,1,.557.777v6.85c0,8.061-9.126,12-9.516,12.17a.822.822,0,0,1-.318.064Zm-8.2-18.493v6.259c0,6.2,6.646,9.765,8.2,10.511,1.547-.747,8.2-4.325,8.2-10.511V14.453l-8.2-2.768Z"
        transform="translate(7.668 4.751)" fill="#d09984" />
    <path id="Path_90" data-name="Path 90"
        d="M19.1,21.876a.385.385,0,0,1-.044,0,.813.813,0,0,1-.595-.307l-3.278-4.1a.82.82,0,0,1,1.28-1.024l2.7,3.381,5.089-5.088A.819.819,0,0,1,25.412,15.9l-5.737,5.737a.816.816,0,0,1-.579.241Z"
        transform="translate(9.586 7.627)" fill="#d09984" />
    <path id="Path_91" data-name="Path 91"
        d="M30.322,12.473H5.737A5.737,5.737,0,1,1,5.737,1H30.322a5.737,5.737,0,1,1,0,11.473ZM5.737,2.639a4.1,4.1,0,1,0,0,8.2H30.322a4.1,4.1,0,1,0,0-8.2Z"
        transform="translate(0 -1)" fill="#d09984" />
    <path id="Path_92" data-name="Path 92"
        d="M5.459,7.917A2.459,2.459,0,1,1,7.917,5.459,2.462,2.462,0,0,1,5.459,7.917Zm0-3.278a.82.82,0,1,0,.82.82A.822.822,0,0,0,5.459,4.639Z"
        transform="translate(1.917 0.278)" fill="#d09984" />
    <path id="Path_93" data-name="Path 93"
        d="M10.459,7.917a2.459,2.459,0,1,1,2.459-2.459A2.462,2.462,0,0,1,10.459,7.917Zm0-3.278a.82.82,0,1,0,.82.82A.822.822,0,0,0,10.459,4.639Z"
        transform="translate(5.112 0.278)" fill="#d09984" />
    <path id="Path_94" data-name="Path 94"
        d="M15.571,18.473H5.737A5.737,5.737,0,0,1,5.737,7H30.322A5.62,5.62,0,0,1,33.81,8.19.82.82,0,0,1,32.8,9.483a3.991,3.991,0,0,0-2.48-.844H5.737a4.1,4.1,0,1,0,0,8.2h9.834a.82.82,0,0,1,0,1.639Z"
        transform="translate(0 2.834)" fill="#d09984" />
    <path id="Path_95" data-name="Path 95"
        d="M5.459,13.917a2.459,2.459,0,1,1,2.459-2.459A2.462,2.462,0,0,1,5.459,13.917Zm0-3.278a.82.82,0,1,0,.82.82A.822.822,0,0,0,5.459,10.639Z"
        transform="translate(1.917 4.112)" fill="#d09984" />
    <path id="Path_96" data-name="Path 96"
        d="M10.459,13.917a2.459,2.459,0,1,1,2.459-2.459A2.462,2.462,0,0,1,10.459,13.917Zm0-3.278a.82.82,0,1,0,.82.82A.822.822,0,0,0,10.459,10.639Z"
        transform="translate(5.112 4.112)" fill="#d09984" />
    <path id="Path_97" data-name="Path 97"
        d="M15.571,24.473H5.737A5.737,5.737,0,0,1,5.737,13h9.834a.82.82,0,1,1,0,1.639H5.737a4.1,4.1,0,0,0,0,8.2h9.834a.82.82,0,0,1,0,1.639Z"
        transform="translate(0 6.668)" fill="#d09984" />
    <path id="Path_98" data-name="Path 98"
        d="M5.459,19.917a2.459,2.459,0,1,1,2.459-2.459A2.462,2.462,0,0,1,5.459,19.917Zm0-3.278a.82.82,0,1,0,.82.82A.822.822,0,0,0,5.459,16.639Z"
        transform="translate(1.917 7.946)" fill="#d09984" />
    <path id="Path_99" data-name="Path 99"
        d="M10.459,19.917a2.459,2.459,0,1,1,2.459-2.459A2.462,2.462,0,0,1,10.459,19.917Zm0-3.278a.82.82,0,1,0,.82.82A.822.822,0,0,0,10.459,16.639Z"
        transform="translate(5.112 7.946)" fill="#d09984" />
</svg>
