<svg xmlns="http://www.w3.org/2000/svg" width="42.632" height="33.573" viewBox="0 0 42.632 33.573">
    <g id="Group_556" data-name="Group 556" transform="translate(-19.256 -31.528)">
        <path id="Path_105" data-name="Path 105"
            d="M41.755,54.412l-9.186-.062c-.141-.008-.28-.041-.42-.047l-1.74-.011-5.55-.392-2.4-.343a7.626,7.626,0,0,1-2.3-.754c-1-.562-1.3-1.4-.249-2.126a15,15,0,0,1,3.028-1.458c.061-.013.082-.382.093-.459a17.532,17.532,0,0,1,4.711-9.544A2.1,2.1,0,0,1,30.4,36.447l.024.01A17.769,17.769,0,0,1,34.937,34l1.6-.5c.17-.032.133-.19.2-.336A2.9,2.9,0,0,1,39.4,31.535l2.5-.007a2.843,2.843,0,0,1,2.6,1.865c.031.135.1.111.223.139a16.4,16.4,0,0,1,5.567,2.614l.367.263c.151.106.163.047.341.011a2.057,2.057,0,0,1,2.56,2.233c-.143.85-.32.375.416,1.164A17.752,17.752,0,0,1,58.1,48.711c.041.281-.038.394.219.521l.513.241a11.779,11.779,0,0,1,2.717,1.471c.793.747.058,1.58-.7,1.942a16.229,16.229,0,0,1-5.472,1.05l-5.044.342-2.9.093c-.167.006-.331.033-.5.037ZM39.241,32.939c-1.776.239-1.2,1.762-1.046,3.052l.378,5.4,0,2.1a3.924,3.924,0,0,0,.1,1.425,2.062,2.062,0,0,0,1.4,1.242l.043.011a2.03,2.03,0,0,0,1.481-.259c.982-.662.932-1.236.932-2.27l.015-2.035c.005-.185.033-.367.048-.552l.327-4.808.147-1.309c.11-.915.241-1.776-1.018-1.982a3.055,3.055,0,0,0-.468-.016l-.75,0c-.524,0-1.063-.027-1.584,0Zm5.246,1.973c-.121.827-.162,1.677-.228,2.511l-.212,3.02L43.986,43.6a5.856,5.856,0,0,1-.084,1.432c-.9,3.572-6.206,3.379-6.734-.278a9.414,9.414,0,0,1-.03-1.323l-.007-2.68c-.006-.212-.048-.421-.059-.633l-.425-5.194-1.177.39a19.145,19.145,0,0,0-4.164,2.182l.316.751a22.87,22.87,0,0,1,.775,2.612c.282,1.173.534,2.612-.9,3.166-1.265.488-2.165-.48-2.569-1.591l-.592-1.764a15.868,15.868,0,0,0-3.579,6.808,8.923,8.923,0,0,0-.353,1.9l.577.149a36.856,36.856,0,0,0,5.724.84l1.233.057c.191.01.377.048.568.056H48.467l4.328-.363a31.54,31.54,0,0,0,3.98-.752,1.961,1.961,0,0,0-.045-.3l-.09-.534a17.26,17.26,0,0,0-3.231-7.194c-.166-.215-.353-.418-.511-.637l-.008.027c-.276.931-.924,2.761-1.739,3.195a1.809,1.809,0,0,1-2.641-1.468,7.424,7.424,0,0,1,.387-2.119l.45-1.521a8.277,8.277,0,0,1,.519-1.3l-1.583-.971A21.026,21.026,0,0,0,44.488,34.911ZM29.6,37.74c-1,.28-.569.915-.3,1.575l1.171,3.124a.533.533,0,0,0,.119.19.39.39,0,0,0,.524-.1c.31-.451-.706-3.392-.893-3.918C30.118,38.307,30.018,37.709,29.6,37.74Zm21.808.029c-.41.106-.588,1.08-.7,1.421l-.5,1.719c-.085.337-.6,2.034.206,1.806a.335.335,0,0,0,.154-.111,6.6,6.6,0,0,0,.631-1.456l.629-1.777c.093-.265.225-.533.3-.8C52.245,38.2,51.783,37.752,51.41,37.769ZM23.361,50.56a13.971,13.971,0,0,0-2.38,1.1,13.7,13.7,0,0,0,3.338.743l4.836.444,1.7.017c.484.019,1.1.04,1.569.076.2.016.4.059.609.065H48.084c.187-.007.368-.058.558-.066l2.743-.1,2.463-.171c1.481-.114,2.969-.249,4.432-.508l1.871-.5c-.788-.338-1.527-.83-2.346-1.09-.228-.072-.827.184-1.067.249l-1.247.283a42.7,42.7,0,0,1-5.735.71c-.227.013-.446.061-.676.065l-16.389,0c-.25,0-.505.008-.754-.009l-.57-.057a38.728,38.728,0,0,1-6.618-.916l-.9-.24a1.721,1.721,0,0,0-.486-.1Z"
            fill="#d09984" />
        <path id="Path_106" data-name="Path 106"
            d="M87.223,305.365a4.987,4.987,0,0,1-2.863-3.387,3.777,3.777,0,0,0-.493-1.542c-.5-.624-1.889-.074-1.916-1.331l0-1.42c-.011-1.015-.11-1.549,1.063-1.485l6.665.417,4.3.217,7.433,0,11.066-.682c.706-.042.794.563.8,1.135v1.676c0,1.256-.5.97-1.452,1.1-1.1.149-1.013,1.2-1.235,2.034a5.464,5.464,0,0,1-5.515,3.81,6.764,6.764,0,0,1-5.319-2.632c-.649-.8-1.258-2.179-2.522-1.99l-.034.005c-.865.124-1.187.811-1.629,1.466a6.825,6.825,0,0,1-8.338,2.614Zm24.534-7.735c-.632.011-1.234.059-1.842.1l-8.06.473c-.16.009-.316.04-.478.045h-7.45c-.15,0-.3-.029-.447-.037l-8.393-.477a15.9,15.9,0,0,0-1.724-.069v1.031c.16.056.331.059.494.112,1.445.467,1.654,1.693,1.954,2.973a3.407,3.407,0,0,0,2.13,2.322,5.192,5.192,0,0,0,5.929-1.477c.477-.53.755-1.211,1.215-1.756a3.224,3.224,0,0,1,5.11.535,10.328,10.328,0,0,0,.792,1.13,5.842,5.842,0,0,0,3.416,1.948c1.708.234,3.98-.614,4.658-2.3.7-1.757.284-3.3,2.778-3.507a1.135,1.135,0,0,0,.015-.308l0-.717A.188.188,0,0,0,111.756,297.63Z"
            transform="translate(-57.041 -240.802)" fill="#d09984" />
    </g>
</svg>