<svg xmlns="http://www.w3.org/2000/svg" width="36.217" height="36.263" viewBox="0 0 36.217 36.263">
    <g id="Group_555" data-name="Group 555" transform="translate(-1 -1)">
        <path id="Path_103" data-name="Path 103"
            d="M17.41,1A8.509,8.509,0,0,0,9.327,7.875,9.081,9.081,0,0,0,9.1,9.99c0,4.684,3.475,11.559,8.31,11.559S25.645,14.6,25.645,9.99a11.717,11.717,0,0,0-.529-3.173A8.233,8.233,0,0,0,17.41,1Zm0,1.511A6.751,6.751,0,0,1,23.53,6.893c-1.587.982-3.551-.755-3.7-.831a.792.792,0,0,0-.982,0c-2.493,2.191-6.27,1.813-7.857,1.511A6.9,6.9,0,0,1,17.41,2.511Zm0,17.527c-3.475,0-6.8-5.666-6.8-10.048a4.647,4.647,0,0,1,.076-.982,13.105,13.105,0,0,0,2.8.3,9.87,9.87,0,0,0,5.893-1.738,4.721,4.721,0,0,0,4.608.831,11.271,11.271,0,0,1,.151,1.587c0,4.382-3.249,10.048-6.724,10.048Z"
            transform="translate(-1.981)" fill="#d09984" />
        <path id="Path_104" data-name="Path 104"
            d="M3.115,41.756H27.668a2.1,2.1,0,0,0,2.115-2.04V34.126a5.52,5.52,0,0,0-.453-2.266c2.191-1.284,4.382-3.249,5.062-5.893a.771.771,0,0,0-.151-.68.933.933,0,0,0-.6-.3h-.076L37.036,20.6a.687.687,0,0,0,.076-.831.662.662,0,0,0-.755-.378c-.076,0-9.443,1.36-12.163,8.764a11.819,11.819,0,0,0-2.266-.151,31.3,31.3,0,0,1-13.221,0A7.581,7.581,0,0,0,1,35.41v4.306a2.1,2.1,0,0,0,2.115,2.04Zm31.5-20.4-3.249,4a.811.811,0,0,0-.076.831.613.613,0,0,0,.68.378h.68c-1.284,2.72-4.457,4.382-6.573,5.288,2.115-2.946,3.928-3.928,4-3.928a.727.727,0,0,0-.68-1.284,14.035,14.035,0,0,0-4.155,3.928c.982-6.044,6.346-8.386,9.368-9.217ZM2.511,35.41A6,6,0,0,1,8.63,29.517a31.4,31.4,0,0,0,13.523,0,9.43,9.43,0,0,1,1.587.151,11.59,11.59,0,0,0-.3,3.324A29.959,29.959,0,0,0,21.1,37.9a.765.765,0,0,0,1.435.529A31.8,31.8,0,0,1,24.722,33.9a21.563,21.563,0,0,0,3.4-1.36,4.871,4.871,0,0,1,.227,1.511v5.591a.584.584,0,0,1-.6.529H3.115a.484.484,0,0,1-.6-.453Z"
            transform="translate(0 -4.493)" fill="#d09984" />
    </g>
</svg>